<mxfile host="app.diagrams.net" modified="2023-10-27T21:23:07.205Z" agent="Mozilla/5.0 (Macintosh; Intel Mac OS X 10_15_7) AppleWebKit/537.36 (KHTML, like Gecko) Chrome/117.0.0.0 Safari/537.36" etag="syHCe63A61E5ZPvLKOcd" version="22.0.8" type="device">
  <diagram name="Страница — 1" id="FVXa_8yGP7T8qH84kQTv">
    <mxGraphModel dx="1434" dy="765" grid="1" gridSize="10" guides="1" tooltips="1" connect="1" arrows="1" fold="1" page="1" pageScale="1" pageWidth="827" pageHeight="1169" math="0" shadow="0">
      <root>
        <mxCell id="0" />
        <mxCell id="1" parent="0" />
        <mxCell id="w3o-LYvDEYoV72vVPv3B-3" value="" style="whiteSpace=wrap;html=1;aspect=fixed;" vertex="1" parent="1">
          <mxGeometry x="90" y="558.2258064516129" width="73.54805289226155" height="73.54805289226155" as="geometry" />
        </mxCell>
        <mxCell id="w3o-LYvDEYoV72vVPv3B-4" value="" style="whiteSpace=wrap;html=1;aspect=fixed;" vertex="1" parent="1">
          <mxGeometry x="163.5485254691689" y="558.2258064516129" width="73.54805289226155" height="73.54805289226155" as="geometry" />
        </mxCell>
        <mxCell id="w3o-LYvDEYoV72vVPv3B-5" value="" style="whiteSpace=wrap;html=1;aspect=fixed;" vertex="1" parent="1">
          <mxGeometry x="90" y="668.5483870967741" width="73.54805289226155" height="73.54805289226155" as="geometry" />
        </mxCell>
        <mxCell id="w3o-LYvDEYoV72vVPv3B-6" value="" style="whiteSpace=wrap;html=1;aspect=fixed;" vertex="1" parent="1">
          <mxGeometry x="163.5485254691689" y="668.5483870967741" width="73.54805289226155" height="73.54805289226155" as="geometry" />
        </mxCell>
        <mxCell id="w3o-LYvDEYoV72vVPv3B-7" value="" style="whiteSpace=wrap;html=1;aspect=fixed;" vertex="1" parent="1">
          <mxGeometry x="90" y="778.8709677419356" width="73.54805289226155" height="73.54805289226155" as="geometry" />
        </mxCell>
        <mxCell id="w3o-LYvDEYoV72vVPv3B-8" value="" style="whiteSpace=wrap;html=1;aspect=fixed;" vertex="1" parent="1">
          <mxGeometry x="163.5485254691689" y="778.8709677419356" width="73.54805289226155" height="73.54805289226155" as="geometry" />
        </mxCell>
        <mxCell id="w3o-LYvDEYoV72vVPv3B-9" value="&lt;span style=&quot;font-size: 25px;&quot;&gt;next&amp;nbsp; &amp;nbsp; &amp;nbsp; inf&lt;/span&gt;" style="text;html=1;strokeColor=none;fillColor=none;align=center;verticalAlign=middle;whiteSpace=wrap;rounded=0;" vertex="1" parent="1">
          <mxGeometry x="99.19356568364611" y="852.4193548387098" width="119.51635388739946" height="27.580645161290324" as="geometry" />
        </mxCell>
        <mxCell id="w3o-LYvDEYoV72vVPv3B-10" value="" style="group" vertex="1" connectable="0" parent="1">
          <mxGeometry x="90" y="310" width="73.5485254691689" height="101.12903225806453" as="geometry" />
        </mxCell>
        <mxCell id="w3o-LYvDEYoV72vVPv3B-1" value="" style="whiteSpace=wrap;html=1;aspect=fixed;" vertex="1" parent="w3o-LYvDEYoV72vVPv3B-10">
          <mxGeometry y="27.580645161290324" width="73.54805289226155" height="73.54805289226155" as="geometry" />
        </mxCell>
        <mxCell id="w3o-LYvDEYoV72vVPv3B-2" value="&lt;span style=&quot;font-size: 25px;&quot;&gt;Up_Sp&lt;/span&gt;" style="text;html=1;strokeColor=none;fillColor=none;align=center;verticalAlign=middle;whiteSpace=wrap;rounded=0;" vertex="1" parent="w3o-LYvDEYoV72vVPv3B-10">
          <mxGeometry x="9.193565683646112" width="55.161394101876674" height="27.580645161290324" as="geometry" />
        </mxCell>
        <mxCell id="w3o-LYvDEYoV72vVPv3B-33" value="" style="shape=waypoint;sketch=0;fillStyle=solid;size=6;pointerEvents=1;points=[];fillColor=none;resizable=0;rotatable=0;perimeter=centerPerimeter;snapToPoint=1;" vertex="1" parent="w3o-LYvDEYoV72vVPv3B-10">
          <mxGeometry x="27.580697050938337" y="55.16129032258065" width="20" height="20" as="geometry" />
        </mxCell>
        <mxCell id="w3o-LYvDEYoV72vVPv3B-11" value="" style="whiteSpace=wrap;html=1;aspect=fixed;" vertex="1" parent="1">
          <mxGeometry x="448.5490616621984" y="558.2258064516129" width="73.54805289226155" height="73.54805289226155" as="geometry" />
        </mxCell>
        <mxCell id="w3o-LYvDEYoV72vVPv3B-12" value="" style="whiteSpace=wrap;html=1;aspect=fixed;" vertex="1" parent="1">
          <mxGeometry x="522.0975871313673" y="558.2258064516129" width="73.54805289226155" height="73.54805289226155" as="geometry" />
        </mxCell>
        <mxCell id="w3o-LYvDEYoV72vVPv3B-13" value="" style="whiteSpace=wrap;html=1;aspect=fixed;" vertex="1" parent="1">
          <mxGeometry x="628.7429490616622" y="659.3548387096774" width="73.54805289226155" height="73.54805289226155" as="geometry" />
        </mxCell>
        <mxCell id="w3o-LYvDEYoV72vVPv3B-14" value="" style="whiteSpace=wrap;html=1;aspect=fixed;" vertex="1" parent="1">
          <mxGeometry x="702.2914745308311" y="659.3548387096774" width="73.54805289226155" height="73.54805289226155" as="geometry" />
        </mxCell>
        <mxCell id="w3o-LYvDEYoV72vVPv3B-15" value="" style="whiteSpace=wrap;html=1;aspect=fixed;" vertex="1" parent="1">
          <mxGeometry x="628.7429490616622" y="558.2258064516129" width="73.54805289226155" height="73.54805289226155" as="geometry" />
        </mxCell>
        <mxCell id="w3o-LYvDEYoV72vVPv3B-16" value="" style="whiteSpace=wrap;html=1;aspect=fixed;" vertex="1" parent="1">
          <mxGeometry x="702.2914745308311" y="558.2258064516129" width="73.54805289226155" height="73.54805289226155" as="geometry" />
        </mxCell>
        <mxCell id="w3o-LYvDEYoV72vVPv3B-23" value="" style="whiteSpace=wrap;html=1;aspect=fixed;" vertex="1" parent="1">
          <mxGeometry x="90" y="447.9032258064516" width="73.54805289226155" height="73.54805289226155" as="geometry" />
        </mxCell>
        <mxCell id="w3o-LYvDEYoV72vVPv3B-24" value="" style="whiteSpace=wrap;html=1;aspect=fixed;" vertex="1" parent="1">
          <mxGeometry x="163.5485254691689" y="447.9032258064516" width="73.54805289226155" height="73.54805289226155" as="geometry" />
        </mxCell>
        <mxCell id="w3o-LYvDEYoV72vVPv3B-25" value="" style="whiteSpace=wrap;html=1;aspect=fixed;" vertex="1" parent="1">
          <mxGeometry x="273.87131367292227" y="447.9032258064516" width="73.54805289226155" height="73.54805289226155" as="geometry" />
        </mxCell>
        <mxCell id="w3o-LYvDEYoV72vVPv3B-26" value="" style="whiteSpace=wrap;html=1;aspect=fixed;" vertex="1" parent="1">
          <mxGeometry x="347.4198391420912" y="447.9032258064516" width="73.54805289226155" height="73.54805289226155" as="geometry" />
        </mxCell>
        <mxCell id="w3o-LYvDEYoV72vVPv3B-27" value="" style="whiteSpace=wrap;html=1;aspect=fixed;" vertex="1" parent="1">
          <mxGeometry x="448.5490616621984" y="447.9032258064516" width="73.54805289226155" height="73.54805289226155" as="geometry" />
        </mxCell>
        <mxCell id="w3o-LYvDEYoV72vVPv3B-28" value="" style="whiteSpace=wrap;html=1;aspect=fixed;" vertex="1" parent="1">
          <mxGeometry x="522.0975871313673" y="447.9032258064516" width="73.54805289226155" height="73.54805289226155" as="geometry" />
        </mxCell>
        <mxCell id="w3o-LYvDEYoV72vVPv3B-29" value="" style="whiteSpace=wrap;html=1;aspect=fixed;" vertex="1" parent="1">
          <mxGeometry x="628.7429490616622" y="447.9032258064516" width="73.54805289226155" height="73.54805289226155" as="geometry" />
        </mxCell>
        <mxCell id="w3o-LYvDEYoV72vVPv3B-30" value="" style="whiteSpace=wrap;html=1;aspect=fixed;" vertex="1" parent="1">
          <mxGeometry x="702.2914745308311" y="447.9032258064516" width="73.54805289226155" height="73.54805289226155" as="geometry" />
        </mxCell>
        <mxCell id="w3o-LYvDEYoV72vVPv3B-31" value="" style="shape=waypoint;sketch=0;fillStyle=solid;size=6;pointerEvents=1;points=[];fillColor=none;resizable=0;rotatable=0;perimeter=centerPerimeter;snapToPoint=1;" vertex="1" parent="1">
          <mxGeometry x="191.12922252010725" y="475.48387096774195" width="20" height="20" as="geometry" />
        </mxCell>
        <mxCell id="w3o-LYvDEYoV72vVPv3B-32" value="" style="shape=waypoint;sketch=0;fillStyle=solid;size=6;pointerEvents=1;points=[];fillColor=none;resizable=0;rotatable=0;perimeter=centerPerimeter;snapToPoint=1;" vertex="1" parent="1">
          <mxGeometry x="117.58069705093834" y="475.48387096774195" width="20" height="20" as="geometry" />
        </mxCell>
        <mxCell id="w3o-LYvDEYoV72vVPv3B-34" value="&lt;span style=&quot;font-size: 25px;&quot;&gt;inf&amp;nbsp; &amp;nbsp; &amp;nbsp; next&lt;/span&gt;" style="text;html=1;strokeColor=none;fillColor=none;align=center;verticalAlign=middle;whiteSpace=wrap;rounded=0;" vertex="1" parent="1">
          <mxGeometry x="650.8075067024129" y="411.1290322580645" width="119.51635388739946" height="27.580645161290324" as="geometry" />
        </mxCell>
        <mxCell id="w3o-LYvDEYoV72vVPv3B-35" value="&lt;span style=&quot;font-size: 25px;&quot;&gt;next&amp;nbsp; &amp;nbsp; &amp;nbsp; inf&lt;/span&gt;" style="text;html=1;strokeColor=none;fillColor=none;align=center;verticalAlign=middle;whiteSpace=wrap;rounded=0;" vertex="1" parent="1">
          <mxGeometry x="457.74262734584454" y="631.7741935483871" width="119.51635388739946" height="27.580645161290324" as="geometry" />
        </mxCell>
        <mxCell id="w3o-LYvDEYoV72vVPv3B-36" value="&lt;span style=&quot;font-size: 25px;&quot;&gt;next&amp;nbsp; &amp;nbsp; &amp;nbsp; inf&lt;/span&gt;" style="text;html=1;strokeColor=none;fillColor=none;align=center;verticalAlign=middle;whiteSpace=wrap;rounded=0;" vertex="1" parent="1">
          <mxGeometry x="641.6139410187668" y="732.9032258064516" width="119.51635388739946" height="27.580645161290324" as="geometry" />
        </mxCell>
        <mxCell id="w3o-LYvDEYoV72vVPv3B-37" value="" style="endArrow=classic;html=1;rounded=0;" edge="1" parent="1" source="w3o-LYvDEYoV72vVPv3B-33">
          <mxGeometry width="50" height="50" relative="1" as="geometry">
            <mxPoint x="246.2906166219839" y="328.38709677419354" as="sourcePoint" />
            <mxPoint x="126.77426273458445" y="447.9032258064516" as="targetPoint" />
          </mxGeometry>
        </mxCell>
        <mxCell id="w3o-LYvDEYoV72vVPv3B-38" value="" style="endArrow=classic;html=1;rounded=0;exitX=0.6;exitY=0.75;exitDx=0;exitDy=0;exitPerimeter=0;entryX=0;entryY=0.5;entryDx=0;entryDy=0;" edge="1" parent="1" source="w3o-LYvDEYoV72vVPv3B-31" target="w3o-LYvDEYoV72vVPv3B-25">
          <mxGeometry width="50" height="50" relative="1" as="geometry">
            <mxPoint x="255.48418230563001" y="401.93548387096774" as="sourcePoint" />
            <mxPoint x="301.4520107238606" y="355.9677419354839" as="targetPoint" />
          </mxGeometry>
        </mxCell>
        <mxCell id="w3o-LYvDEYoV72vVPv3B-40" value="" style="shape=waypoint;sketch=0;fillStyle=solid;size=6;pointerEvents=1;points=[];fillColor=none;resizable=0;rotatable=0;perimeter=centerPerimeter;snapToPoint=1;" vertex="1" parent="1">
          <mxGeometry x="375.0005361930295" y="475.48387096774195" width="20" height="20" as="geometry" />
        </mxCell>
        <mxCell id="w3o-LYvDEYoV72vVPv3B-41" value="" style="endArrow=classic;html=1;rounded=0;" edge="1" parent="1" source="w3o-LYvDEYoV72vVPv3B-40">
          <mxGeometry width="50" height="50" relative="1" as="geometry">
            <mxPoint x="439.35549597855226" y="484.2177419354839" as="sourcePoint" />
            <mxPoint x="448.5490616621984" y="484.6774193548387" as="targetPoint" />
          </mxGeometry>
        </mxCell>
        <mxCell id="w3o-LYvDEYoV72vVPv3B-42" value="" style="shape=waypoint;sketch=0;fillStyle=solid;size=6;pointerEvents=1;points=[];fillColor=none;resizable=0;rotatable=0;perimeter=centerPerimeter;snapToPoint=1;" vertex="1" parent="1">
          <mxGeometry x="549.6782841823057" y="475.48387096774195" width="20" height="20" as="geometry" />
        </mxCell>
        <mxCell id="w3o-LYvDEYoV72vVPv3B-43" value="" style="endArrow=classic;html=1;rounded=0;entryX=0;entryY=0.5;entryDx=0;entryDy=0;" edge="1" parent="1" source="w3o-LYvDEYoV72vVPv3B-42" target="w3o-LYvDEYoV72vVPv3B-29">
          <mxGeometry width="50" height="50" relative="1" as="geometry">
            <mxPoint x="393.38766756032174" y="493.8709677419355" as="sourcePoint" />
            <mxPoint x="457.74262734584454" y="493.8709677419355" as="targetPoint" />
          </mxGeometry>
        </mxCell>
        <mxCell id="w3o-LYvDEYoV72vVPv3B-44" value="" style="endArrow=none;html=1;rounded=0;entryX=1;entryY=0;entryDx=0;entryDy=0;exitX=0;exitY=1;exitDx=0;exitDy=0;" edge="1" parent="1" source="w3o-LYvDEYoV72vVPv3B-30" target="w3o-LYvDEYoV72vVPv3B-30">
          <mxGeometry width="50" height="50" relative="1" as="geometry">
            <mxPoint x="705.9689008042897" y="521.4516129032259" as="sourcePoint" />
            <mxPoint x="751.9367292225201" y="475.48387096774195" as="targetPoint" />
          </mxGeometry>
        </mxCell>
        <mxCell id="w3o-LYvDEYoV72vVPv3B-45" value="" style="endArrow=none;html=1;rounded=0;exitX=0;exitY=0;exitDx=0;exitDy=0;entryX=1;entryY=1;entryDx=0;entryDy=0;" edge="1" parent="1" source="w3o-LYvDEYoV72vVPv3B-30" target="w3o-LYvDEYoV72vVPv3B-30">
          <mxGeometry width="50" height="50" relative="1" as="geometry">
            <mxPoint x="632.4203753351206" y="328.38709677419354" as="sourcePoint" />
            <mxPoint x="678.3882037533511" y="282.4193548387097" as="targetPoint" />
          </mxGeometry>
        </mxCell>
        <mxCell id="w3o-LYvDEYoV72vVPv3B-55" value="" style="endArrow=none;html=1;rounded=0;entryX=1;entryY=0;entryDx=0;entryDy=0;exitX=0;exitY=1;exitDx=0;exitDy=0;" edge="1" parent="1">
          <mxGeometry width="50" height="50" relative="1" as="geometry">
            <mxPoint x="628.7429490616622" y="732.9032258064516" as="sourcePoint" />
            <mxPoint x="702.2914745308311" y="659.3548387096774" as="targetPoint" />
          </mxGeometry>
        </mxCell>
        <mxCell id="w3o-LYvDEYoV72vVPv3B-56" value="" style="endArrow=none;html=1;rounded=0;exitX=0;exitY=0;exitDx=0;exitDy=0;entryX=1;entryY=1;entryDx=0;entryDy=0;" edge="1" parent="1">
          <mxGeometry width="50" height="50" relative="1" as="geometry">
            <mxPoint x="628.7429490616622" y="659.3548387096774" as="sourcePoint" />
            <mxPoint x="702.2914745308311" y="732.9032258064516" as="targetPoint" />
          </mxGeometry>
        </mxCell>
        <mxCell id="w3o-LYvDEYoV72vVPv3B-57" value="" style="endArrow=none;html=1;rounded=0;entryX=1;entryY=0;entryDx=0;entryDy=0;exitX=0;exitY=1;exitDx=0;exitDy=0;" edge="1" parent="1">
          <mxGeometry width="50" height="50" relative="1" as="geometry">
            <mxPoint x="90" y="852.4193548387098" as="sourcePoint" />
            <mxPoint x="163.5485254691689" y="778.8709677419356" as="targetPoint" />
          </mxGeometry>
        </mxCell>
        <mxCell id="w3o-LYvDEYoV72vVPv3B-58" value="" style="endArrow=none;html=1;rounded=0;exitX=0;exitY=0;exitDx=0;exitDy=0;entryX=1;entryY=1;entryDx=0;entryDy=0;" edge="1" parent="1">
          <mxGeometry width="50" height="50" relative="1" as="geometry">
            <mxPoint x="90" y="778.8709677419356" as="sourcePoint" />
            <mxPoint x="163.5485254691689" y="852.4193548387098" as="targetPoint" />
          </mxGeometry>
        </mxCell>
        <mxCell id="w3o-LYvDEYoV72vVPv3B-59" value="" style="endArrow=classic;html=1;rounded=0;" edge="1" parent="1" source="w3o-LYvDEYoV72vVPv3B-32">
          <mxGeometry width="50" height="50" relative="1" as="geometry">
            <mxPoint x="384.1941018766756" y="622.5806451612902" as="sourcePoint" />
            <mxPoint x="126.77426273458445" y="558.2258064516129" as="targetPoint" />
          </mxGeometry>
        </mxCell>
        <mxCell id="w3o-LYvDEYoV72vVPv3B-60" value="" style="shape=waypoint;sketch=0;fillStyle=solid;size=6;pointerEvents=1;points=[];fillColor=none;resizable=0;rotatable=0;perimeter=centerPerimeter;snapToPoint=1;" vertex="1" parent="1">
          <mxGeometry x="117.58069705093834" y="585.8064516129032" width="20" height="20" as="geometry" />
        </mxCell>
        <mxCell id="w3o-LYvDEYoV72vVPv3B-61" value="" style="shape=waypoint;sketch=0;fillStyle=solid;size=6;pointerEvents=1;points=[];fillColor=none;resizable=0;rotatable=0;perimeter=centerPerimeter;snapToPoint=1;" vertex="1" parent="1">
          <mxGeometry x="117.58069705093834" y="696.1290322580645" width="20" height="20" as="geometry" />
        </mxCell>
        <mxCell id="w3o-LYvDEYoV72vVPv3B-63" value="" style="endArrow=classic;html=1;rounded=0;exitX=0.75;exitY=0.45;exitDx=0;exitDy=0;exitPerimeter=0;" edge="1" parent="1" source="w3o-LYvDEYoV72vVPv3B-60" target="w3o-LYvDEYoV72vVPv3B-5">
          <mxGeometry width="50" height="50" relative="1" as="geometry">
            <mxPoint x="126.31458445040215" y="595" as="sourcePoint" />
            <mxPoint x="126.31458445040215" y="668.5483870967741" as="targetPoint" />
          </mxGeometry>
        </mxCell>
        <mxCell id="w3o-LYvDEYoV72vVPv3B-65" value="" style="endArrow=classic;html=1;rounded=0;exitX=0.5;exitY=0.85;exitDx=0;exitDy=0;exitPerimeter=0;entryX=0.5;entryY=0;entryDx=0;entryDy=0;" edge="1" parent="1" source="w3o-LYvDEYoV72vVPv3B-61" target="w3o-LYvDEYoV72vVPv3B-7">
          <mxGeometry width="50" height="50" relative="1" as="geometry">
            <mxPoint x="310.18589812332436" y="732.9032258064516" as="sourcePoint" />
            <mxPoint x="310.18589812332436" y="806.4516129032259" as="targetPoint" />
          </mxGeometry>
        </mxCell>
        <mxCell id="w3o-LYvDEYoV72vVPv3B-72" value="" style="group" vertex="1" connectable="0" parent="1">
          <mxGeometry x="10" y="548" width="60" height="74" as="geometry" />
        </mxCell>
        <mxCell id="w3o-LYvDEYoV72vVPv3B-70" value="" style="group" vertex="1" connectable="0" parent="w3o-LYvDEYoV72vVPv3B-72">
          <mxGeometry width="60" height="74" as="geometry" />
        </mxCell>
        <mxCell id="w3o-LYvDEYoV72vVPv3B-67" value="" style="whiteSpace=wrap;html=1;aspect=fixed;" vertex="1" parent="w3o-LYvDEYoV72vVPv3B-70">
          <mxGeometry x="8" y="31" width="43" height="43" as="geometry" />
        </mxCell>
        <mxCell id="w3o-LYvDEYoV72vVPv3B-68" value="" style="shape=waypoint;sketch=0;fillStyle=solid;size=6;pointerEvents=1;points=[];fillColor=none;resizable=0;rotatable=0;perimeter=centerPerimeter;snapToPoint=1;" vertex="1" parent="w3o-LYvDEYoV72vVPv3B-70">
          <mxGeometry x="19.49975871313677" y="42.49645161290323" width="20" height="20" as="geometry" />
        </mxCell>
        <mxCell id="w3o-LYvDEYoV72vVPv3B-69" value="&lt;font style=&quot;font-size: 15px;&quot;&gt;Top&lt;/font&gt;" style="text;html=1;strokeColor=none;fillColor=none;align=center;verticalAlign=middle;whiteSpace=wrap;rounded=0;" vertex="1" parent="w3o-LYvDEYoV72vVPv3B-70">
          <mxGeometry width="60" height="30" as="geometry" />
        </mxCell>
        <mxCell id="w3o-LYvDEYoV72vVPv3B-71" value="" style="endArrow=classic;html=1;rounded=0;entryX=0;entryY=0.25;entryDx=0;entryDy=0;" edge="1" parent="w3o-LYvDEYoV72vVPv3B-72" source="w3o-LYvDEYoV72vVPv3B-68" target="w3o-LYvDEYoV72vVPv3B-3">
          <mxGeometry width="50" height="50" relative="1" as="geometry">
            <mxPoint x="128" y="58" as="sourcePoint" />
            <mxPoint x="127" y="131" as="targetPoint" />
          </mxGeometry>
        </mxCell>
        <mxCell id="w3o-LYvDEYoV72vVPv3B-73" value="" style="group" vertex="1" connectable="0" parent="1">
          <mxGeometry x="20" y="558" width="60" height="74" as="geometry" />
        </mxCell>
        <mxCell id="w3o-LYvDEYoV72vVPv3B-74" value="" style="group" vertex="1" connectable="0" parent="1">
          <mxGeometry x="370" y="540" width="60" height="74" as="geometry" />
        </mxCell>
        <mxCell id="w3o-LYvDEYoV72vVPv3B-75" value="" style="whiteSpace=wrap;html=1;aspect=fixed;" vertex="1" parent="w3o-LYvDEYoV72vVPv3B-74">
          <mxGeometry x="8" y="31" width="43" height="43" as="geometry" />
        </mxCell>
        <mxCell id="w3o-LYvDEYoV72vVPv3B-76" value="" style="shape=waypoint;sketch=0;fillStyle=solid;size=6;pointerEvents=1;points=[];fillColor=none;resizable=0;rotatable=0;perimeter=centerPerimeter;snapToPoint=1;" vertex="1" parent="w3o-LYvDEYoV72vVPv3B-74">
          <mxGeometry x="19.49975871313677" y="42.49645161290323" width="20" height="20" as="geometry" />
        </mxCell>
        <mxCell id="w3o-LYvDEYoV72vVPv3B-77" value="&lt;font style=&quot;font-size: 15px;&quot;&gt;Top&lt;/font&gt;" style="text;html=1;strokeColor=none;fillColor=none;align=center;verticalAlign=middle;whiteSpace=wrap;rounded=0;" vertex="1" parent="w3o-LYvDEYoV72vVPv3B-74">
          <mxGeometry width="60" height="30" as="geometry" />
        </mxCell>
        <mxCell id="w3o-LYvDEYoV72vVPv3B-78" value="" style="endArrow=classic;html=1;rounded=0;entryX=0;entryY=0.25;entryDx=0;entryDy=0;" edge="1" parent="1" source="w3o-LYvDEYoV72vVPv3B-76" target="w3o-LYvDEYoV72vVPv3B-11">
          <mxGeometry width="50" height="50" relative="1" as="geometry">
            <mxPoint x="148" y="616" as="sourcePoint" />
            <mxPoint x="147" y="689" as="targetPoint" />
          </mxGeometry>
        </mxCell>
        <mxCell id="w3o-LYvDEYoV72vVPv3B-79" value="" style="endArrow=none;html=1;rounded=0;entryX=1;entryY=0;entryDx=0;entryDy=0;exitX=0;exitY=1;exitDx=0;exitDy=0;" edge="1" parent="1">
          <mxGeometry width="50" height="50" relative="1" as="geometry">
            <mxPoint x="449.7429490616622" y="630.9032258064516" as="sourcePoint" />
            <mxPoint x="523.2914745308311" y="557.3548387096774" as="targetPoint" />
          </mxGeometry>
        </mxCell>
        <mxCell id="w3o-LYvDEYoV72vVPv3B-80" value="" style="endArrow=none;html=1;rounded=0;exitX=0;exitY=0;exitDx=0;exitDy=0;entryX=1;entryY=1;entryDx=0;entryDy=0;" edge="1" parent="1">
          <mxGeometry width="50" height="50" relative="1" as="geometry">
            <mxPoint x="449.7429490616622" y="557.3548387096774" as="sourcePoint" />
            <mxPoint x="523.2914745308311" y="630.9032258064516" as="targetPoint" />
          </mxGeometry>
        </mxCell>
        <mxCell id="w3o-LYvDEYoV72vVPv3B-81" value="" style="shape=waypoint;sketch=0;fillStyle=solid;size=6;pointerEvents=1;points=[];fillColor=none;resizable=0;rotatable=0;perimeter=centerPerimeter;snapToPoint=1;" vertex="1" parent="1">
          <mxGeometry x="655.5206970509385" y="475.4864516129032" width="20" height="20" as="geometry" />
        </mxCell>
        <mxCell id="w3o-LYvDEYoV72vVPv3B-82" value="" style="endArrow=classic;html=1;rounded=0;exitX=0.75;exitY=0.45;exitDx=0;exitDy=0;exitPerimeter=0;entryX=0.5;entryY=0;entryDx=0;entryDy=0;" edge="1" parent="1" source="w3o-LYvDEYoV72vVPv3B-81" target="w3o-LYvDEYoV72vVPv3B-15">
          <mxGeometry width="50" height="50" relative="1" as="geometry">
            <mxPoint x="664.2545844504023" y="484.68" as="sourcePoint" />
            <mxPoint x="664.94" y="558.6800000000001" as="targetPoint" />
          </mxGeometry>
        </mxCell>
        <mxCell id="w3o-LYvDEYoV72vVPv3B-83" value="" style="shape=waypoint;sketch=0;fillStyle=solid;size=6;pointerEvents=1;points=[];fillColor=none;resizable=0;rotatable=0;perimeter=centerPerimeter;snapToPoint=1;" vertex="1" parent="1">
          <mxGeometry x="655.5206970509385" y="585.8064516129032" width="20" height="20" as="geometry" />
        </mxCell>
        <mxCell id="w3o-LYvDEYoV72vVPv3B-84" value="" style="endArrow=classic;html=1;rounded=0;exitX=0.75;exitY=0.45;exitDx=0;exitDy=0;exitPerimeter=0;entryX=0.5;entryY=0;entryDx=0;entryDy=0;" edge="1" parent="1" source="w3o-LYvDEYoV72vVPv3B-83" target="w3o-LYvDEYoV72vVPv3B-13">
          <mxGeometry width="50" height="50" relative="1" as="geometry">
            <mxPoint x="664.2545844504023" y="595" as="sourcePoint" />
            <mxPoint x="664.94" y="669" as="targetPoint" />
          </mxGeometry>
        </mxCell>
        <mxCell id="w3o-LYvDEYoV72vVPv3B-85" value="" style="group" vertex="1" connectable="0" parent="1">
          <mxGeometry x="783" y="568.15" width="43.53" height="53.69" as="geometry" />
        </mxCell>
        <mxCell id="w3o-LYvDEYoV72vVPv3B-86" value="" style="whiteSpace=wrap;html=1;aspect=fixed;" vertex="1" parent="w3o-LYvDEYoV72vVPv3B-85">
          <mxGeometry x="5.804" y="22.491756756756757" width="31.1965" height="31.1965" as="geometry" />
        </mxCell>
        <mxCell id="w3o-LYvDEYoV72vVPv3B-87" value="" style="shape=waypoint;sketch=0;fillStyle=solid;size=6;pointerEvents=1;points=[];fillColor=none;resizable=0;rotatable=0;perimeter=centerPerimeter;snapToPoint=1;" vertex="1" parent="w3o-LYvDEYoV72vVPv3B-85">
          <mxGeometry x="11.407074946380728" y="28.09289847428073" width="20" height="20" as="geometry" />
        </mxCell>
        <mxCell id="w3o-LYvDEYoV72vVPv3B-88" value="&lt;font style=&quot;font-size: 15px;&quot;&gt;Top&lt;/font&gt;" style="text;html=1;strokeColor=none;fillColor=none;align=center;verticalAlign=middle;whiteSpace=wrap;rounded=0;" vertex="1" parent="w3o-LYvDEYoV72vVPv3B-85">
          <mxGeometry width="43.53" height="21.766216216216215" as="geometry" />
        </mxCell>
        <mxCell id="w3o-LYvDEYoV72vVPv3B-90" style="rounded=0;orthogonalLoop=1;jettySize=auto;html=1;entryX=1;entryY=0.25;entryDx=0;entryDy=0;" edge="1" parent="1" source="w3o-LYvDEYoV72vVPv3B-87" target="w3o-LYvDEYoV72vVPv3B-16">
          <mxGeometry relative="1" as="geometry">
            <mxPoint x="684" y="558" as="targetPoint" />
          </mxGeometry>
        </mxCell>
        <mxCell id="w3o-LYvDEYoV72vVPv3B-92" style="edgeStyle=orthogonalEdgeStyle;rounded=0;orthogonalLoop=1;jettySize=auto;html=1;entryX=0.5;entryY=0;entryDx=0;entryDy=0;" edge="1" parent="1" source="w3o-LYvDEYoV72vVPv3B-91" target="w3o-LYvDEYoV72vVPv3B-11">
          <mxGeometry relative="1" as="geometry" />
        </mxCell>
        <mxCell id="w3o-LYvDEYoV72vVPv3B-91" value="" style="shape=waypoint;sketch=0;fillStyle=solid;size=6;pointerEvents=1;points=[];fillColor=none;resizable=0;rotatable=0;perimeter=centerPerimeter;snapToPoint=1;" vertex="1" parent="1">
          <mxGeometry x="475.32069705093846" y="474.6764516129032" width="20" height="20" as="geometry" />
        </mxCell>
        <mxCell id="w3o-LYvDEYoV72vVPv3B-93" value="" style="endArrow=none;html=1;rounded=0;entryX=1;entryY=0;entryDx=0;entryDy=0;exitX=0;exitY=1;exitDx=0;exitDy=0;" edge="1" parent="1">
          <mxGeometry width="50" height="50" relative="1" as="geometry">
            <mxPoint x="273.7429490616622" y="521.9032258064516" as="sourcePoint" />
            <mxPoint x="347.2914745308311" y="448.35483870967744" as="targetPoint" />
          </mxGeometry>
        </mxCell>
        <mxCell id="w3o-LYvDEYoV72vVPv3B-94" value="" style="endArrow=none;html=1;rounded=0;exitX=0;exitY=0;exitDx=0;exitDy=0;entryX=1;entryY=1;entryDx=0;entryDy=0;" edge="1" parent="1">
          <mxGeometry width="50" height="50" relative="1" as="geometry">
            <mxPoint x="273.7429490616622" y="448.35483870967744" as="sourcePoint" />
            <mxPoint x="347.2914745308311" y="521.9032258064516" as="targetPoint" />
          </mxGeometry>
        </mxCell>
        <mxCell id="w3o-LYvDEYoV72vVPv3B-95" value="&lt;font style=&quot;font-size: 25px;&quot;&gt;D_St&lt;/font&gt;" style="text;html=1;strokeColor=none;fillColor=none;align=center;verticalAlign=middle;whiteSpace=wrap;rounded=0;" vertex="1" parent="1">
          <mxGeometry x="137.57999999999998" y="417.9" width="60" height="30" as="geometry" />
        </mxCell>
        <mxCell id="w3o-LYvDEYoV72vVPv3B-98" value="&lt;font style=&quot;font-size: 20px;&quot;&gt;El_Down&lt;/font&gt;" style="text;html=1;strokeColor=none;fillColor=none;align=center;verticalAlign=middle;whiteSpace=wrap;rounded=0;" vertex="1" parent="1">
          <mxGeometry x="154.35262734584452" y="751.294193548387" width="119.51635388739946" height="27.580645161290324" as="geometry" />
        </mxCell>
        <mxCell id="w3o-LYvDEYoV72vVPv3B-99" value="&lt;font style=&quot;font-size: 20px;&quot;&gt;El_Down&lt;/font&gt;" style="text;html=1;strokeColor=none;fillColor=none;align=center;verticalAlign=middle;whiteSpace=wrap;rounded=0;" vertex="1" parent="1">
          <mxGeometry x="679.3026273458446" y="632.0041935483871" width="119.51635388739946" height="27.580645161290324" as="geometry" />
        </mxCell>
      </root>
    </mxGraphModel>
  </diagram>
</mxfile>
